{"title":"The Junky's Christmas (1993) DVDRip DivX + Ukr sub","uid":9275488,"size":214858468,"categoryP":"video","categoryS":"movies","magnet":"?xt=urn:btih:d9a3a5b294e541e50c5b41552d025539554fea31&amp;dn=The+Junky%27s+Christmas+%281993%29+DVDRip+DivX+%2B+Ukr+sub&amp;tr=udp%3A%2F%2Ftracker.openbittorrent.com%3A80&amp;tr=udp%3A%2F%2Fopen.demonii.com%3A1337&amp;tr=udp%3A%2F%2Ftracker.coppersurfer.tk%3A6969&amp;tr=udp%3A%2F%2Fexodus.desync.com%3A6969","seeders":4,"leechers":0,"uploader":"orysia","files":-1,"time":1385848336,"description":" &lt;a href=&quot;http://www.imdb.com/title/tt0125812/?ref_=fn_al_tt_1&quot; rel=&quot;nofollow&quot; target=&quot;_NEW&quot;&gt;http://www.imdb.com/title/tt0125812/?ref_=fn_al_tt_1&lt;/a&gt;\n\n\nDirectors: Nick Donkin, Melodie McDaniel\n\nWriters: William S. Burroughs (story), James Grauerholz\n\nStars: William S. Burroughs, Susan Ashline, Dayton Bard\n\nBurroughs takes down a book and reads us the story of Danny the Carwiper, who spends Christmas Day trying to score a fix, but finds the Christmas spirit instead.\n\nFormat                                   : Matroska\nFormat version                           : Version 4 / Version 2\nFile size                                : 205 MiB\nDuration                                 : 21mn 31s\nOverall bit rate                         : 1 331 Kbps\nMovie name                               : Junky's Christmas*1993 /antusyrzhuk\nEncoded date                             : UTC 2013-11-30 19:48:27\nWriting application                      : mkvmerge v6.5.0 ('Isn't she lovely') built on Oct 20 2013 12:50:05\nWriting library                          : libebml v1.3.0 + libmatroska v1.4.1\n\nVideo\nID                                       : 1\nFormat                                   : MPEG-4 Visual\nFormat settings, BVOP                    : Yes\nFormat settings, QPel                    : No\nFormat settings, GMC                     : No warppoints\nFormat settings, Matrix                  : Default (H.263)\nCodec ID                                 : DX50\nCodec ID/Hint                            : DivX 5\nDuration                                 : 21mn 31s\nBit rate                                 : 1 176 Kbps\nWidth                                    : 640 pixels\nHeight                                   : 480 pixels\nDisplay aspect ratio                     : 4:3\nFrame rate                               : 29.970 fps\nColor space                              : YUV\nChroma subsampling                       : 4:2:0\nBit depth                                : 8 bits\nScan type                                : Progressive\nCompression mode                         : Lossy\nBits/(Pixel*Frame)                       : 0.128\nStream size                              : 181 MiB (88%)\nTitle                                    : http://cinemasterpiece(dot)wordpress(dot)com/\nWriting library                          : DivX 2310\nDefault                                  : Yes\nForced                                   : No\n\nAudio\nID                                       : 2\nFormat                                   : MPEG Audio\nFormat version                           : Version 1\nFormat profile                           : Layer 3\nMode                                     : Joint stereo\nCodec ID                                 : A_MPEG/L3\nCodec ID/Hint                            : MP3\nDuration                                 : 21mn 31s\nBit rate mode                            : Constant\nBit rate                                 : 128 Kbps\nChannel(s)                               : 2 channels\nSampling rate                            : 44.1 KHz\nCompression mode                         : Lossy\nStream size                              : 19.7 MiB (10%)\nTitle                                    : http://cinemasterpiece(dot)wordpress(dot)com/\nLanguage                                 : English\nDefault                                  : Yes\nForced                                   : No\n\nText #1\nID                                       : 3\nFormat                                   : UTF-8\nCodec ID                                 : S_TEXT/UTF8\nCodec ID/Info                            : UTF-8 Plain Text\nLanguage                                 : Ukrainian\nDefault                                  : Yes\nForced                                   : No\n\nText #2\nID                                       : 4\nFormat                                   : UTF-8\nCodec ID                                 : S_TEXT/UTF8\nCodec ID/Info                            : UTF-8 Plain Text\nLanguage                                 : English\nDefault                                  : No\nForced                                   : No\n\nScreenshots: &lt;a href=&quot;\nhttp://imageshack.us/a/img571/1122/08xs.png&quot; rel=&quot;nofollow&quot; target=&quot;_NEW&quot;&gt;\nhttp://imageshack.us/a/img571/1122/08xs.png&lt;/a&gt; &lt;a href=&quot;\nhttp://imageshack.us/a/img833/1019/8ibv.png&quot; rel=&quot;nofollow&quot; target=&quot;_NEW&quot;&gt;\nhttp://imageshack.us/a/img833/1019/8ibv.png&lt;/a&gt; &lt;a href=&quot;\nhttp://imageshack.us/a/img30/1614/mdvu.png&quot; rel=&quot;nofollow&quot; target=&quot;_NEW&quot;&gt;\nhttp://imageshack.us/a/img30/1614/mdvu.png&lt;/a&gt; &lt;a href=&quot;\nhttp://imageshack.us/a/img845/5333/cdjz.png&quot; rel=&quot;nofollow&quot; target=&quot;_NEW&quot;&gt;\nhttp://imageshack.us/a/img845/5333/cdjz.png&lt;/a&gt;","torrent":{"xt":"urn:btih:d9a3a5b294e541e50c5b41552d025539554fea31","amp;dn":"The+Junky%27s+Christmas+%281993%29+DVDRip+DivX+%2B+Ukr+sub","amp;tr":["udp%3A%2F%2Ftracker.openbittorrent.com%3A80","udp%3A%2F%2Fopen.demonii.com%3A1337","udp%3A%2F%2Ftracker.coppersurfer.tk%3A6969","udp%3A%2F%2Fexodus.desync.com%3A6969"],"infoHash":"d9a3a5b294e541e50c5b41552d025539554fea31","infoHashBuffer":{"type":"Buffer","data":[217,163,165,178,148,229,65,229,12,91,65,85,45,2,85,57,85,79,234,49]},"announce":[],"urlList":[]}}